<svg width="145" height="130" viewBox="0 0 145 130" fill="none" xmlns="http://www.w3.org/2000/svg">
<path fill-rule="evenodd" clip-rule="evenodd" d="M2.41154 73.9519C-0.803848 68.3827 -0.803848 61.5211 2.41154 55.9519L29.5192 9C32.7346 3.43079 38.6769 0 45.1077 0H99.3231C105.754 0 111.696 3.43079 114.912 9L142.019 55.9519C145.235 61.5211 145.235 68.3827 142.019 73.9519L114.912 120.904C111.696 126.473 105.754 129.904 99.3231 129.904H45.1077C38.6769 129.904 32.7346 126.473 29.5192 120.904L2.41154 73.9519ZM65.6654 82.4519C62.0154 82.4519 58.7154 81.7769 55.7654 80.4269C52.8154 79.0769 50.2904 77.2519 48.1904 74.9519C46.0904 72.6519 44.4904 70.0519 43.3904 67.1519C42.2904 64.2019 41.7404 61.1269 41.7404 57.9269C41.7404 53.7769 42.4404 50.1019 43.8404 46.9019C45.2904 43.7019 47.1904 41.0019 49.5404 38.8019C51.8904 36.6019 54.4654 34.9519 57.2654 33.8519C60.1154 32.7019 62.9154 32.1269 65.6654 32.1269C69.4154 32.1269 72.7654 32.8019 75.7154 34.1519C78.7154 35.5019 81.2654 37.3269 83.3654 39.6269C85.4654 41.9269 87.0654 44.5519 88.1654 47.5019C89.0373 49.8005 89.5636 52.1777 89.7444 54.6335C90.9951 54.8176 92.2881 55.0864 93.6234 55.4399C95.5367 55.9319 97.3407 56.7245 99.0354 57.8179C100.73 58.9113 102.097 60.3599 103.135 62.1639C104.229 63.9679 104.775 66.2366 104.775 68.9699C104.775 71.5392 104.174 73.8625 102.971 75.9399C101.823 78.0172 100.265 79.7939 98.2974 81.2699C96.384 82.7459 94.1974 83.8939 91.7374 84.7139C89.332 85.4792 86.8721 85.8619 84.3574 85.8619C83.1547 85.8619 81.8427 85.7799 80.4214 85.6159C79 85.4519 77.5787 85.0966 76.1574 84.5499V96.3579C76.2121 97.3965 76.3214 98.4079 76.4854 99.3919C76.6494 100.321 77.0867 101.114 77.7974 101.77C78.5627 102.371 79.7927 102.672 81.4874 102.672C82.0887 102.672 82.5807 102.727 82.9634 102.836C83.3461 102.945 83.5647 103.465 83.6194 104.394C83.6194 104.831 83.4827 105.241 83.2094 105.624C82.9907 106.007 82.6354 106.198 82.1434 106.198C78.6447 106.034 75.228 105.952 71.8934 105.952H67.0554C65.5247 106.007 63.8847 106.089 62.1354 106.198C61.6434 106.198 61.2607 106.007 60.9874 105.624C60.7687 105.241 60.6594 104.831 60.6594 104.394C60.714 103.465 60.9327 102.945 61.3154 102.836C61.7527 102.727 62.2447 102.672 62.7914 102.672C64.5407 102.672 65.7707 102.371 66.4814 101.77C67.192 101.114 67.6294 100.321 67.7934 99.3919C68.012 98.4079 68.1214 97.3965 68.1214 96.3579V82.2999C67.3005 82.4012 66.4819 82.4519 65.6654 82.4519ZM68.1214 78.9566C67.318 79.0868 66.4743 79.1519 65.5904 79.1519C62.1904 79.1519 59.3654 78.1519 57.1154 76.1519C54.8654 74.1519 53.1904 71.5269 52.0904 68.2769C51.0404 64.9769 50.5154 61.4519 50.5154 57.7019C50.5154 53.7019 51.0404 50.0269 52.0904 46.6769C53.1404 43.2769 54.7654 40.5519 56.9654 38.5019C59.2154 36.4019 62.0904 35.3519 65.5904 35.3519C69.0404 35.3519 71.8904 36.3519 74.1404 38.3519C76.3904 40.3019 78.0654 42.9019 79.1654 46.1519C80.0696 48.6679 80.6183 51.3539 80.8115 54.2099H71.9754C70.3354 54.2099 68.7227 54.1826 67.1374 54.1279C65.552 54.0732 63.8847 54.0186 62.1354 53.9639C61.6434 53.9639 61.2607 54.1552 60.9874 54.5379C60.7687 54.9206 60.6594 55.3306 60.6594 55.7679C60.714 56.6972 60.9327 57.2166 61.3154 57.3259C61.7527 57.4352 62.2447 57.4899 62.7914 57.4899C64.5407 57.4899 65.7707 57.8179 66.4814 58.4739C67.192 59.0753 67.6294 59.8679 67.7934 60.8519C68.012 61.7812 68.1214 62.7653 68.1214 63.8039V78.9566ZM76.1574 79.7288V81.2699C76.7041 81.4886 77.4967 81.7072 78.5354 81.9259C79.5741 82.0899 80.722 82.1719 81.9794 82.1719C83.2367 82.1719 84.6307 81.9806 86.1614 81.5979C87.7467 81.1606 89.25 80.4772 90.6714 79.5479C92.1474 78.5639 93.3501 77.2519 94.2794 75.6119C95.2087 73.9172 95.6734 71.7852 95.6734 69.2159C95.6734 66.4279 95.1267 64.2412 94.0334 62.6559C92.94 61.0159 91.5734 59.8132 89.9334 59.0479C89.8664 59.0156 89.7995 58.9838 89.7325 58.9525C89.5048 62.1433 88.8074 65.0264 87.6404 67.6019C86.1904 70.8019 84.2654 73.5019 81.8654 75.7019C80.0863 77.3327 78.1837 78.675 76.1574 79.7288ZM80.8851 57.2492C80.8268 60.9951 80.2785 64.4959 79.2404 67.7519C78.5061 70.1295 77.4784 72.1893 76.1574 73.9312V63.5579C76.1574 61.6992 76.2941 60.3326 76.5674 59.4579C76.8954 58.5286 77.442 57.9272 78.2074 57.6539C78.8854 57.4117 79.778 57.2768 80.8851 57.2492Z" fill="url(#paint0_linear_109_8)"/>
<defs>
<linearGradient id="paint0_linear_109_8" x1="72.2154" y1="0" x2="72.2154" y2="129.904" gradientUnits="userSpaceOnUse">
<stop stop-color="#545454"/>
<stop offset="0.0001" stop-color="#C98686"/>
<stop offset="1" stop-color="#966B9D"/>
</linearGradient>
</defs>
</svg>
